<?xml version="1.0" encoding="utf-8"?>
<!-- Generator: Adobe Illustrator 16.0.4, SVG Export Plug-In . SVG Version: 6.00 Build 0)  -->
<!DOCTYPE svg PUBLIC "-//W3C//DTD SVG 1.1//EN" "http://www.w3.org/Graphics/SVG/1.1/DTD/svg11.dtd">
<svg version="1.1" id="Layer_1" xmlns="http://www.w3.org/2000/svg" xmlns:xlink="http://www.w3.org/1999/xlink" x="0px" y="0px"
	 width="51.578px" height="51.578px" viewBox="0 0 51.578 51.578" enable-background="new 0 0 51.578 51.578" xml:space="preserve">
<path fill="#E7BF4E" d="M50.719,51.578H0.86c-0.476,0-0.86-0.385-0.86-0.859V4.297c0-0.475,0.384-0.859,0.86-0.859h8.596
	c0.475,0,0.86,0.384,0.86,0.859c0,0.476-0.385,0.86-0.86,0.86H1.719v44.702h48.141V5.157h-7.736c-0.477,0-0.86-0.384-0.86-0.86
	c0-0.475,0.384-0.859,0.86-0.859h8.596c0.475,0,0.859,0.384,0.859,0.859v46.421C51.578,51.193,51.193,51.578,50.719,51.578"/>
<path fill="#E7BF4E" d="M16.333,10.315H9.456c-0.475,0-0.86-0.384-0.86-0.859V0.859C8.596,0.384,8.981,0,9.456,0h6.877
	c0.475,0,0.86,0.384,0.86,0.859v8.597C17.193,9.931,16.808,10.315,16.333,10.315 M10.316,8.596h5.158V1.719h-5.158V8.596z"/>
<path fill="#E7BF4E" d="M42.123,10.315h-6.879c-0.475,0-0.858-0.384-0.858-0.859V0.859C34.386,0.384,34.77,0,35.244,0h6.879
	c0.475,0,0.859,0.384,0.859,0.859v8.597C42.982,9.931,42.598,10.315,42.123,10.315 M36.105,8.596h5.157V1.719h-5.157V8.596z"/>
<path fill="#E7BF4E" d="M35.245,5.157H16.333c-0.475,0-0.86-0.385-0.86-0.86s0.385-0.859,0.86-0.859h18.912
	c0.476,0,0.86,0.384,0.86,0.859S35.721,5.157,35.245,5.157"/>
<path fill="#E7BF4E" d="M50.719,17.192H0.86c-0.476,0-0.86-0.385-0.86-0.86s0.384-0.859,0.86-0.859h49.859
	c0.475,0,0.859,0.384,0.859,0.859S51.193,17.192,50.719,17.192"/>
<path fill="#E7BF4E" d="M12.895,47.243c-0.475,0-0.86-0.384-0.86-0.86V20.369c0-0.475,0.385-0.86,0.86-0.86
	c0.475,0,0.86,0.385,0.86,0.86v26.014C13.754,46.859,13.369,47.243,12.895,47.243"/>
<path fill="#E7BF4E" d="M24.93,47.243c-0.475,0-0.86-0.384-0.86-0.86V20.369c0-0.475,0.385-0.86,0.86-0.86
	c0.475,0,0.86,0.385,0.86,0.86v26.014C25.79,46.859,25.404,47.243,24.93,47.243"/>
<path fill="#E7BF4E" d="M36.965,47.243c-0.476,0-0.86-0.384-0.86-0.86V20.369c0-0.475,0.385-0.86,0.86-0.86
	c0.475,0,0.859,0.385,0.859,0.86v26.014C37.824,46.859,37.439,47.243,36.965,47.243"/>
<path fill="#E7BF4E" d="M46.383,25.789H5.196c-0.476,0-0.86-0.384-0.86-0.86c0-0.475,0.384-0.859,0.86-0.859h41.187
	c0.475,0,0.859,0.384,0.859,0.859C47.242,25.405,46.857,25.789,46.383,25.789"/>
<path fill="#E7BF4E" d="M46.383,34.385H5.196c-0.476,0-0.86-0.385-0.86-0.859s0.384-0.859,0.86-0.859h41.187
	c0.475,0,0.859,0.385,0.859,0.859S46.857,34.385,46.383,34.385"/>
<path fill="#E7BF4E" d="M46.383,42.981H5.196c-0.476,0-0.86-0.384-0.86-0.86c0-0.475,0.384-0.858,0.86-0.858h41.187
	c0.475,0,0.859,0.384,0.859,0.858C47.242,42.598,46.857,42.981,46.383,42.981"/>
</svg>
