<?xml version="1.0" encoding="utf-8"?>
<!-- Generator: Adobe Illustrator 16.0.4, SVG Export Plug-In . SVG Version: 6.00 Build 0)  -->
<!DOCTYPE svg PUBLIC "-//W3C//DTD SVG 1.1//EN" "http://www.w3.org/Graphics/SVG/1.1/DTD/svg11.dtd">
<svg version="1.1" id="Layer_1" xmlns="http://www.w3.org/2000/svg" xmlns:xlink="http://www.w3.org/1999/xlink" x="0px" y="0px"
	 width="44.423px" height="43.278px" viewBox="0 0 44.423 43.278" enable-background="new 0 0 44.423 43.278" xml:space="preserve">
<path fill="#D2524C" d="M22.212,43.278c-0.266,0-0.529-0.065-0.769-0.198c-0.218-0.121-5.402-3.026-10.649-8.134
	C3.732,28.073,0,20.483,0,12.998C0,4.113,5.244,0.135,10.441,0.135c4.752,0,9.117,2.988,11.787,7.852
	C24.674,3.638,28.888,0,34.251,0c5.062,0,10.172,3.674,10.172,11.882c0,7.933-3.728,15.855-10.778,22.909
	c-5.255,5.256-10.448,8.168-10.666,8.289C22.74,43.213,22.476,43.278,22.212,43.278 M10.441,3.294c-4.424,0-7.283,3.809-7.283,9.704
	c0,14.257,15.397,24.606,19.052,26.862c3.646-2.267,19.055-12.742,19.055-27.979c0-5.299-2.754-8.723-7.014-8.723
	c-3.716,0-8.414,2.856-10.541,9.238c-0.216,0.645-0.819,1.08-1.498,1.08c-0.681,0-1.284-0.435-1.499-1.08
	C18.617,6.109,14.043,3.294,10.441,3.294"/>
</svg>
