<?xml version="1.0" encoding="utf-8"?>
<!-- Generator: Adobe Illustrator 16.0.4, SVG Export Plug-In . SVG Version: 6.00 Build 0)  -->
<!DOCTYPE svg PUBLIC "-//W3C//DTD SVG 1.1//EN" "http://www.w3.org/Graphics/SVG/1.1/DTD/svg11.dtd">
<svg version="1.1" id="Layer_1" xmlns="http://www.w3.org/2000/svg" xmlns:xlink="http://www.w3.org/1999/xlink" x="0px" y="0px"
	 width="55.658px" height="55.656px" viewBox="0 0 55.658 55.656" enable-background="new 0 0 55.658 55.656" xml:space="preserve">
<path fill="#FFFFFF" d="M27.83,0C12.46,0,0,12.46,0,27.83c0,15.368,12.46,27.826,27.83,27.826c15.369,0,27.828-12.458,27.828-27.826
	C55.658,12.46,43.199,0,27.83,0 M17.232,27.284c-0.093,0.903,0.258,1.787,0.445,2.505c0.202,0.774,0.405,1.568,0.322,2.625
	c-0.251,3.245-2.637,5.601-5.573,6.138c-3.624,0.663-6.405-1.537-7.431-4.039c-0.575-1.395-0.719-3.323-0.122-4.927
	c0.758-2.036,2.339-3.633,4.562-4.24c0.768-0.209,1.568-0.323,2.263-0.646c0.943-0.437,1.748-1.413,1.737-2.745
	c-0.005-0.662-0.274-1.224-0.444-1.819c-0.176-0.612-0.312-1.222-0.363-1.897c-0.104-1.358,0.216-2.667,0.768-3.675
	c0.476-0.869,1.198-1.744,2.142-2.385c0.906-0.616,2.061-1.025,3.472-1.13c1.865-0.138,3.607,0.631,4.686,1.533
	c1.109,0.931,1.965,2.124,2.303,3.88c0.739,3.835-1.613,6.76-4.322,7.714c-0.822,0.288-1.944,0.348-2.746,0.728
	C18.109,25.29,17.357,26.08,17.232,27.284 M33.793,27.284c-0.092,0.903,0.259,1.787,0.444,2.505
	c0.202,0.774,0.405,1.568,0.323,2.625c-0.253,3.245-2.636,5.601-5.574,6.138c-3.623,0.663-6.404-1.537-7.432-4.039
	c-0.573-1.395-0.716-3.323-0.121-4.927c0.759-2.036,2.341-3.633,4.564-4.24c0.765-0.209,1.567-0.323,2.263-0.646
	c0.942-0.437,1.747-1.413,1.736-2.745c-0.007-0.662-0.274-1.224-0.444-1.819c-0.175-0.612-0.314-1.222-0.364-1.897
	c-0.102-1.358,0.218-2.667,0.769-3.675c0.475-0.869,1.195-1.744,2.14-2.385c0.91-0.616,2.062-1.025,3.475-1.13
	c1.863-0.138,3.605,0.631,4.686,1.533c1.108,0.931,1.963,2.124,2.302,3.88c0.738,3.835-1.611,6.76-4.322,7.714
	c-0.823,0.288-1.945,0.348-2.746,0.728C34.67,25.29,33.919,26.08,33.793,27.284 M41.911,38.23c-2.178-0.859-4.158-2.884-4.361-5.857
	c-0.149-2.207,0.716-3.879,1.697-5.007c0.477-0.549,1.114-1.096,1.857-1.494c0.731-0.396,1.64-0.684,2.666-0.768
	c3.222-0.265,5.595,1.595,6.623,3.594c0.645,1.253,0.933,2.774,0.688,4.283C50.457,36.789,46.287,39.96,41.911,38.23"/>
</svg>
