<?xml version="1.0" encoding="utf-8"?>
<!-- Generator: Adobe Illustrator 16.0.4, SVG Export Plug-In . SVG Version: 6.00 Build 0)  -->
<!DOCTYPE svg PUBLIC "-//W3C//DTD SVG 1.1//EN" "http://www.w3.org/Graphics/SVG/1.1/DTD/svg11.dtd">
<svg version="1.1" id="Layer_1" xmlns="http://www.w3.org/2000/svg" xmlns:xlink="http://www.w3.org/1999/xlink" x="0px" y="0px"
	 width="44.482px" height="46.017px" viewBox="0 0 44.482 46.017" enable-background="new 0 0 44.482 46.017" xml:space="preserve">
<path fill="#67A2C5" d="M0.767,46.017c-0.07,0-0.144-0.01-0.216-0.031c-0.406-0.119-0.639-0.545-0.52-0.951L13.068,0.552
	c0.12-0.406,0.547-0.64,0.952-0.52c0.406,0.119,0.64,0.545,0.521,0.951L1.503,45.466C1.405,45.801,1.099,46.017,0.767,46.017"/>
<path fill="#67A2C5" d="M43.716,46.017c-0.332,0-0.639-0.216-0.736-0.551L29.941,0.982c-0.119-0.406,0.114-0.832,0.521-0.951
	c0.408-0.12,0.834,0.114,0.951,0.52l13.038,44.482c0.119,0.406-0.114,0.832-0.52,0.951C43.859,46.007,43.786,46.017,43.716,46.017"
	/>
<path fill="#67A2C5" d="M22.241,46.017c-0.424,0-0.768-0.343-0.768-0.768v-7.668c0-0.424,0.344-0.768,0.768-0.768
	s0.767,0.344,0.767,0.768v7.668C23.008,45.674,22.665,46.017,22.241,46.017"/>
<path fill="#67A2C5" d="M22.241,30.678c-0.424,0-0.768-0.343-0.768-0.767v-7.669c0-0.424,0.344-0.767,0.768-0.767
	s0.767,0.343,0.767,0.767v7.669C23.008,30.335,22.665,30.678,22.241,30.678"/>
<path fill="#67A2C5" d="M22.241,15.339c-0.424,0-0.768-0.343-0.768-0.767V8.437c0-0.424,0.344-0.767,0.768-0.767
	s0.767,0.343,0.767,0.767v6.135C23.008,14.996,22.665,15.339,22.241,15.339"/>
<path fill="#67A2C5" d="M22.241,3.068c-0.424,0-0.768-0.343-0.768-0.767V0.767C21.474,0.344,21.817,0,22.241,0
	s0.767,0.344,0.767,0.767v1.534C23.008,2.725,22.665,3.068,22.241,3.068"/>
</svg>
