<?xml version="1.0" encoding="utf-8"?>
<!-- Generator: Adobe Illustrator 16.0.4, SVG Export Plug-In . SVG Version: 6.00 Build 0)  -->
<!DOCTYPE svg PUBLIC "-//W3C//DTD SVG 1.1//EN" "http://www.w3.org/Graphics/SVG/1.1/DTD/svg11.dtd">
<svg version="1.1" id="Layer_1" xmlns="http://www.w3.org/2000/svg" xmlns:xlink="http://www.w3.org/1999/xlink" x="0px" y="0px"
	 width="50.149px" height="50.149px" viewBox="0 0 50.149 50.149" enable-background="new 0 0 50.149 50.149" xml:space="preserve">
<path fill="#A2BD5F" d="M13.489,22.95H0v-1.737c0-1.561,1.175-3.12,2.676-3.549l4.974-1.318v-2.285h1.7v3.593l-6.223,1.649
	c-0.753,0.215-1.427,1.11-1.427,1.91v0.037h11.789V22.95z"/>
<path fill="#A2BD5F" d="M22.95,22.95H11.346v-1.7h9.904c0-0.878-0.566-1.753-1.261-1.952L13.6,17.66v-3.525h1.7v2.206l5.134,1.317
	c1.444,0.411,2.516,1.953,2.516,3.592V22.95z"/>
<path fill="#A2BD5F" d="M11.567,15.724c-4.014,0-7.28-3.527-7.28-7.862S7.553,0,11.567,0c4.015,0,7.281,3.527,7.281,7.862
	S15.582,15.724,11.567,15.724 M11.567,1.7c-3.077,0-5.58,2.764-5.58,6.162c0,3.398,2.503,6.162,5.58,6.162
	c3.077,0,5.581-2.764,5.581-6.162C17.148,4.464,14.644,1.7,11.567,1.7"/>
<path fill="#A2BD5F" d="M15.917,8.169c-0.245,0-0.496-0.018-0.747-0.055c-1.072-0.158-2.007-0.643-2.679-1.369
	c-2.422,1.767-5.841,1.684-7.701,0.371l0.98-1.388c1.332,0.94,4.361,1.08,6.269-0.827c0.19-0.19,0.459-0.279,0.725-0.24
	s0.498,0.202,0.625,0.439c0.524,0.976,1.496,1.254,2.029,1.332c0.863,0.126,1.617-0.105,1.913-0.4l1.202,1.202
	C17.932,7.834,16.971,8.169,15.917,8.169"/>
<path fill="#A2BD5F" d="M40.689,22.95H27.2v-1.737c0-1.561,1.175-3.12,2.676-3.549l4.975-1.318v-2.302h1.699v3.61l-6.223,1.649
	c-0.753,0.215-1.427,1.11-1.427,1.91v0.037h11.789V22.95z"/>
<path fill="#A2BD5F" d="M50.149,22.95H38.545v-1.7h9.904c0-0.878-0.566-1.753-1.262-1.952l-6.389-1.638v-3.533h1.7v2.214
	l5.134,1.317c1.444,0.411,2.516,1.953,2.516,3.592V22.95z"/>
<path fill="#A2BD5F" d="M38.766,15.724c-4.014,0-7.279-3.527-7.279-7.862S34.752,0,38.766,0c4.016,0,7.281,3.527,7.281,7.862
	S42.782,15.724,38.766,15.724 M38.766,1.7c-3.076,0-5.58,2.764-5.58,6.162c0,3.398,2.504,6.162,5.58,6.162
	c3.078,0,5.582-2.764,5.582-6.162C44.348,4.464,41.844,1.7,38.766,1.7"/>
<path fill="#A2BD5F" d="M43.116,8.169c-0.244,0-0.496-0.018-0.747-0.055c-1.071-0.158-2.007-0.643-2.679-1.369
	c-2.422,1.767-5.842,1.684-7.701,0.371l0.98-1.388c1.332,0.94,4.361,1.08,6.269-0.827c0.19-0.19,0.457-0.279,0.726-0.24
	c0.266,0.039,0.498,0.202,0.625,0.439c0.523,0.976,1.496,1.254,2.028,1.332c0.862,0.126,1.618-0.105,1.913-0.4l1.202,1.202
	C45.131,7.834,44.17,8.169,43.116,8.169"/>
<path fill="#A2BD5F" d="M25.721,50.149H13.083v-1.922c0-1.562,1.175-3.121,2.676-3.55l4.826-1.379V40.95h1.7v3.632l-6.059,1.73
	c-0.769,0.22-1.443,1.115-1.443,1.915v0.222h10.939V50.149z"/>
<path fill="#A2BD5F" d="M36.217,50.149h-12.64v-1.7h10.938v-0.222c0-0.802-0.674-1.695-1.444-1.915l-6.058-1.73v-3.633h1.701v2.35
	l4.823,1.379c1.501,0.429,2.679,1.988,2.679,3.55V50.149z"/>
<path fill="#A2BD5F" d="M24.65,42.738c-4.015,0-7.281-3.527-7.281-7.861c0-4.336,3.266-7.862,7.281-7.862
	c4.015,0,7.28,3.526,7.28,7.862C31.93,39.211,28.665,42.738,24.65,42.738 M24.65,28.715c-3.077,0-5.581,2.764-5.581,6.162
	c0,3.397,2.504,6.162,5.581,6.162s5.581-2.765,5.581-6.162C30.231,31.479,27.727,28.715,24.65,28.715"/>
<path fill="#A2BD5F" d="M28.903,35.145c-0.238,0-0.479-0.018-0.721-0.053c-1.041-0.153-1.951-0.625-2.608-1.332
	c-2.422,1.767-5.842,1.685-7.703,0.371l0.981-1.389c1.332,0.941,4.362,1.081,6.269-0.826c0.19-0.189,0.46-0.277,0.724-0.24
	c0.267,0.039,0.498,0.203,0.625,0.438c0.512,0.952,1.448,1.22,1.961,1.296c0.873,0.129,1.642-0.115,1.948-0.422l1.202,1.201
	C30.973,34.797,29.971,35.145,28.903,35.145"/>
<path fill="#A2BD5F" d="M12.861,31.93c-0.217,0-0.435-0.082-0.601-0.248l-5.358-5.359c-0.332-0.332-0.332-0.87,0-1.202
	s0.869-0.332,1.201,0l5.359,5.359c0.332,0.332,0.332,0.87,0,1.202C13.296,31.848,13.078,31.93,12.861,31.93"/>
<path fill="#A2BD5F" d="M36.439,31.93c-0.218,0-0.435-0.082-0.601-0.248c-0.332-0.332-0.332-0.87,0-1.202l5.358-5.359
	c0.332-0.332,0.869-0.332,1.201,0s0.332,0.87,0,1.202l-5.358,5.359C36.874,31.848,36.656,31.93,36.439,31.93"/>
</svg>
